<?xml version="1.0" encoding="UTF-8"?>
<svg id="Layer_2" xmlns="http://www.w3.org/2000/svg" viewBox="0 0 538.56 438.68">
  <g id="Layer_1-2" data-name="Layer_1">
    <g>
      <path d="M358.71,300.12c-1.16-2.15-2.7-4.06-4.55-5.66l-89.86-77.4c-5.46-4.7-13.03-6.1-19.81-3.67-6.78,2.44-11.73,8.33-12.95,15.44l-12.25,71.36-96.12-4.51-1.87,39.96,113.78,5.33c10.09.45,18.94-6.64,20.65-16.59l9.26-53.94,60.28,51.92,38.92,72.13,35.2-18.99-40.67-75.38Z"/>
      <path d="M206.11,144.81l49.26-20.86,52.29,51.06c6.39,6.24,16.14,7.49,23.9,3.06l60.15-34.37-19.85-34.73-47.05,26.88-51.01-49.81c-5.77-5.63-14.35-7.25-21.77-4.11l-69.75,29.54c-5.24,2.22-9.29,6.57-11.13,11.95l-24.3,71.11,37.85,12.93,21.4-62.65Z"/>
      <rect x="250.5" y="7.9" width="40" height="53.35"/>
    </g>
    <g>
      <path d="M245.77,211.33c-5.3-6.2-13.83-8.57-21.57-5.97-7.74,2.59-13.12,9.63-13.61,17.77l-3.45,57.76-34.17,73.94,36.31,16.78,35.75-77.37c1.05-2.27,1.66-4.71,1.81-7.2l.72-12,20.77,24.33-7.83,64.77,39.71,4.8,8.89-73.48c.67-5.55-1.01-11.14-4.65-15.39l-58.69-68.73Z"/>
      <path d="M207.49,145.88l28.29-24.23,39.09,53.2c4.03,5.49,10.59,8.55,17.38,8.12l61.08-3.88-2.54-39.92-50.17,3.19-45.38-61.75c-3.29-4.48-8.31-7.39-13.83-8.03-5.53-.64-11.07,1.06-15.29,4.68l-51.81,44.37c-4.53,3.88-7.09,9.58-6.99,15.54l1.19,67.5,39.99-.7-1.02-58.08Z"/>
      <rect x="229.81" y="0" width="40" height="53.35"/>
    </g>
    <g>
      <path d="M383.51,301.84c.04-5.86-2.5-11.45-6.95-15.28l-89.86-77.4c-4.39-3.78-10.2-5.47-15.93-4.64-5.73.83-10.82,4.11-13.95,8.98l-58,90.23-78.69,49.78,21.39,33.8,82.43-52.15c2.46-1.56,4.56-3.64,6.13-6.09l47.95-74.59,54.61,47.04-54.12,45.45,25.72,30.63,10.19-8.56v28.75h66.27v-40h-52.88l48.53-40.76c4.49-3.77,7.1-9.33,7.14-15.19Z"/>
      <path d="M195.39,201.2l39.02-8.79-12.15-53.91,53.08-21.64,42.62,58c3.48,4.73,8.86,7.7,14.71,8.11,5.85.42,11.6-1.77,15.7-5.97l52.15-53.33-28.6-27.96-35.68,36.49-37.9-51.58c-5.43-7.39-15.18-10.14-23.67-6.68l-83.2,33.92c-9.05,3.69-14.11,13.38-11.96,22.92l15.87,70.43Z"/>
      <rect x="272.9" y="0" width="40" height="53.35"/>
    </g>
    <g>
      <path d="M216.46,209.4c-7.33-6.55-18.34-6.8-25.96-.58l-92.09,75.11c-.07.06-.15.12-.22.18l-72.12,60.57,25.72,30.63,7.6-6.38,11.63,18.39,25.84-16.35v26.83h53.35v-40h-32.52l35.76-22.62c2.46-1.56,4.56-3.64,6.13-6.09l60.39-93.95c5.32-8.27,3.83-19.18-3.5-25.73Z"/>
      <path d="M362.39,221.41l71.19-22.27-11.94-38.18-61.08,19.11-66.51-52.76c-6.17-4.89-14.62-5.71-21.61-2.1-6.99,3.61-11.21,10.99-10.79,18.85l4.4,81.34c.4,7.3,4.74,13.8,11.33,16.96l63.11,30.21,17.27-36.08-52.42-25.1-1.36-25.15,40,31.73c5.19,4.12,12.08,5.4,18.4,3.42Z"/>
      <rect x="295.49" y="70.11" width="53.35" height="40" transform="translate(90.2 331.15) rotate(-61.73)"/>
    </g>
    <g>
      <path d="M248.14,356.44l-115.66-27.29c-.09-.02-.19-.04-.28-.06l-91.97-20.3-8.62,39.06,9.69,2.14-7.5,20.42,91.57,33.61c2.21.81,4.54,1.22,6.89,1.22.56,0,1.11-.02,1.67-.07l111.29-9.33c9.8-.82,17.55-8.65,18.27-18.45.73-9.81-5.78-18.69-15.35-20.94Z"/>
      <path d="M493.92,341.51l44.64-42.42-27.55-29-63.55,60.4-100.57,21.31c-9.89,2.1-16.66,11.24-15.78,21.31.88,10.07,9.14,17.9,19.25,18.24l107.04,3.61c.23,0,.45.01.67.01,2.21,0,4.41-.37,6.5-1.09l70.54-24.24-13-37.83-28.19,9.69Z"/>
      <rect x="346.83" y="288.78" width="53.35" height="40" transform="translate(-70.1 503.89) rotate(-63.32)"/>
    </g>
    <rect y="398.68" width="504" height="40"/>
    <g>
      <path d="M376.56,286.56l-89.86-77.4c-4.39-3.78-10.2-5.47-15.93-4.64-5.73.83-10.82,4.11-13.95,8.98l-58,90.23-78.69,49.78,21.39,33.8,82.43-52.15c2.46-1.56,4.56-3.64,6.13-6.09l47.95-74.59,54.61,47.04-54.12,45.45,25.72,30.63,72.12-60.57c4.49-3.77,7.1-9.33,7.14-15.19.04-5.87-2.5-11.45-6.95-15.28Z"/>
      <path d="M195.39,201.19l39.02-8.79-12.15-53.91,53.08-21.64,42.62,58c3.48,4.73,8.86,7.7,14.71,8.11,5.86.41,11.6-1.77,15.7-5.97l52.15-53.33-28.6-27.96-35.68,36.49-37.9-51.58c-5.43-7.39-15.18-10.14-23.67-6.68l-83.2,33.92c-9.05,3.69-14.11,13.38-11.96,22.92l15.87,70.43Z"/>
      <rect x="272.9" width="40" height="53.35"/>
    </g>
    <g>
      <path d="M267.24,225.59c-5.77-6.36-14.96-8.33-22.83-4.89-7.87,3.44-12.66,11.52-11.91,20.08l5.42,61.57-33.77,21.36,19.58,30.95-16.42,44.25,37.5,13.91,32.72-88.2,30.43-19.25c4.99-3.16,8.33-8.36,9.12-14.21.79-5.85-1.04-11.75-5-16.13l-44.85-49.44Z"/>
      <path d="M287.06,167.77l-6.15-62.57c-.71-7.2-5.24-13.45-11.86-16.36-6.62-2.91-14.29-2.01-20.07,2.33l-54.77,41.23c-6.28,4.73-9.21,12.7-7.48,20.38l15.87,70.43,39.02-8.79-13.03-57.83,16-12.04,4.42,44.94c1,10.14,9.46,17.91,19.64,18.04l65.27.85.52-40-47.38-.62Z"/>
      <rect x="251.68" y="14.71" width="40" height="53.35"/>
    </g>
  </g>
</svg>