<?xml version="1.0" encoding="UTF-8"?>
<svg id="Layer_2" xmlns="http://www.w3.org/2000/svg" viewBox="0 0 1501.63 383.52">
  <g id="Layer_1-2" data-name="Layer_1">
    <polygon points="25.38 379.49 0 348.57 216.26 171.06 355.74 266.39 263.43 343.92 237.7 313.29 289.64 269.67 218.45 221.01 25.38 379.49"/>
    <polygon points="371.96 246.79 361.28 158.54 299.28 117.81 157.47 117.81 157.47 77.81 311.25 77.81 398.76 135.3 406.26 197.27 490.16 176.82 499.63 215.68 371.96 246.79"/>
    <polygon points="890.98 383.52 824.55 282.31 734.87 221.01 541.79 379.49 516.42 348.57 732.67 171.06 853.66 253.75 924.42 361.57 890.98 383.52"/>
    <polygon points="888.38 246.79 877.7 158.54 815.7 117.81 673.88 117.81 673.88 77.81 827.66 77.81 915.18 135.3 922.68 197.27 1006.57 176.82 1016.04 215.68 888.38 246.79"/>
    <polygon points="1376.58 383.52 1310.15 282.31 1231.75 228.72 1211.62 308.62 1100.13 380.82 1078.39 347.24 1176.67 283.59 1206.98 163.34 1339.25 253.75 1410.02 361.57 1376.58 383.52"/>
    <polygon points="1373.97 246.79 1363.29 158.54 1301.29 117.81 1159.48 117.81 1159.48 77.81 1313.26 77.81 1400.77 135.3 1408.27 197.27 1492.16 176.82 1501.63 215.68 1373.97 246.79"/>
    <rect x="337.64" y="20.32" width="71.68" height="40" transform="translate(217.12 381.89) rotate(-71.56)"/>
    <rect x="860.53" y="20.32" width="71.68" height="40" transform="translate(574.65 877.94) rotate(-71.56)"/>
    <rect x="1347.46" y="26.32" width="71.68" height="40" transform="translate(901.9 1343.98) rotate(-71.56)"/>
  </g>
</svg>